<svg width="26" height="26" viewBox="0 0 26 26" fill="none" xmlns="http://www.w3.org/2000/svg">
<circle cx="13" cy="13" r="13" fill="#D25C5C"/>
<path d="M13.9104 13L18.5247 7.4998C18.602 7.4084 18.537 7.26953 18.4175 7.26953H17.0147C16.9321 7.26953 16.853 7.30645 16.7985 7.36973L12.9929 11.9066L9.1872 7.36973C9.13447 7.30645 9.05537 7.26953 8.97099 7.26953H7.56826C7.44872 7.26953 7.38369 7.4084 7.46103 7.4998L12.0753 13L7.46103 18.5002C7.4437 18.5206 7.43259 18.5455 7.429 18.572C7.42542 18.5985 7.42951 18.6255 7.4408 18.6497C7.45209 18.674 7.4701 18.6945 7.49269 18.7088C7.51529 18.7231 7.54151 18.7306 7.56826 18.7305H8.97099C9.05361 18.7305 9.13271 18.6936 9.1872 18.6303L12.9929 14.0934L16.7985 18.6303C16.8513 18.6936 16.9304 18.7305 17.0147 18.7305H18.4175C18.537 18.7305 18.602 18.5916 18.5247 18.5002L13.9104 13Z" fill="white"/>
</svg>
